<svg width="25.000000" height="20.564575" viewBox="0 0 25 20.5646" fill="none" xmlns="http://www.w3.org/2000/svg" xmlns:xlink="http://www.w3.org/1999/xlink">
	<desc>
			Created with Pixso.
	</desc>
	<defs/>
	<path id="Vector" d="M23.3871 0L1.61292 0C1.1853 0.000610352 0.775391 0.170654 0.473022 0.473022C0.170685 0.775391 0.000549316 1.1853 0 1.61292L0 15.3226C0.000549316 15.7501 0.170685 16.1602 0.473022 16.4624C0.775391 16.7648 1.1853 16.9349 1.61292 16.9354L9.92438 16.9354L9.3866 18.5483L8.06451 18.5483C7.95758 18.5483 7.85501 18.5908 7.77939 18.6665C7.70377 18.7421 7.66129 18.8447 7.66129 18.9517L7.66129 19.7581L4.03226 19.7581C3.92532 19.7581 3.82275 19.8005 3.74713 19.8762C3.67151 19.9518 3.62903 20.0543 3.62903 20.1613C3.62903 20.2682 3.67151 20.3708 3.74713 20.4464C3.82275 20.522 3.92532 20.5646 4.03226 20.5646L21.7742 20.5646C21.8812 20.5646 21.9837 20.522 22.0593 20.4464C22.1349 20.3708 22.1774 20.2682 22.1774 20.1613C22.1774 20.0543 22.1349 19.9518 22.0593 19.8762C21.9837 19.8005 21.8812 19.7581 21.7742 19.7581L17.3387 19.7581L17.3387 18.9517C17.3387 18.8447 17.2962 18.7421 17.2206 18.6665C17.145 18.5908 17.0424 18.5483 16.9355 18.5483L15.6134 18.5483L15.0756 16.9354L23.3871 16.9354C23.8147 16.9349 24.2246 16.7648 24.527 16.4624C24.8293 16.1602 24.9995 15.7501 25 15.3226L25 1.61292C24.9995 1.1853 24.8293 0.775391 24.527 0.473022C24.2246 0.170654 23.8147 0.000610352 23.3871 0ZM16.5323 19.3549L16.5323 19.7581L8.46774 19.7581L8.46774 19.3549L16.5323 19.3549ZM10.2369 18.5483L10.7747 16.9354L14.2253 16.9354L14.7631 18.5483L10.2369 18.5483ZM24.1935 15.3226C24.1933 15.5364 24.1082 15.7413 23.957 15.8926C23.8058 16.0437 23.6009 16.1288 23.3871 16.129L1.61292 16.129C1.39911 16.1288 1.19415 16.0437 1.04297 15.8926C0.891785 15.7413 0.806732 15.5364 0.806458 15.3226L0.806458 14.5161L24.1935 14.5161L24.1935 15.3226ZM6.83771 10.0807L6.68649 13.7097L6.21674 13.7097L6.06552 10.0807L6.83771 10.0807ZM6.12097 9.27417L6.39011 7.66125L6.51309 7.66125L6.78226 9.27417L6.12097 9.27417ZM6.4516 6.85486C6.01462 6.85486 5.64517 6.3009 5.64517 5.64514C5.64517 5.23132 6.06754 4.63 6.45059 4.20618C6.79587 4.58923 7.25806 5.20166 7.25806 5.64514C7.25806 6.3009 6.88861 6.85486 6.4516 6.85486ZM10.8397 6.04834L10.8871 6.14368L10.8871 6.45166L9.27417 6.45166L9.27417 6.14368L9.32159 6.04834L10.8397 6.04834ZM9.72479 5.24194L10.0806 4.53076L10.4365 5.24194L9.72479 5.24194ZM10.8871 7.25806L10.8871 13.6593C10.8873 13.6761 10.8884 13.693 10.8906 13.7097L9.27069 13.7097C9.27289 13.693 9.27405 13.6761 9.27417 13.6593L9.27417 7.25806L10.8871 7.25806ZM14.5161 5.64514L15.7258 5.64514L15.7258 6.45166L15.3226 6.45166C15.2156 6.45166 15.1131 6.49414 15.0375 6.5697C14.9619 6.64539 14.9194 6.74792 14.9194 6.85486C14.9194 6.96179 14.9619 7.06433 15.0375 7.14001C15.1131 7.21558 15.2156 7.25806 15.3226 7.25806L15.7258 7.25806L15.7258 8.06458L14.5161 8.06458C14.4092 8.06458 14.3066 8.10706 14.231 8.18262C14.1554 8.25818 14.1129 8.36084 14.1129 8.46777C14.1129 8.57471 14.1554 8.67725 14.231 8.75281C14.3066 8.82849 14.4092 8.87097 14.5161 8.87097L15.7258 8.87097L15.7258 9.67737L15.3226 9.67737C15.2156 9.67737 15.1131 9.71985 15.0375 9.79553C14.9619 9.87109 14.9194 9.97375 14.9194 10.0807C14.9194 10.1876 14.9619 10.2902 15.0375 10.3657C15.1131 10.4414 15.2156 10.4839 15.3226 10.4839L15.7258 10.4839L15.7258 11.2903L14.5161 11.2903C14.4092 11.2903 14.3066 11.3328 14.231 11.4084C14.1554 11.484 14.1129 11.5865 14.1129 11.6936C14.1129 11.8005 14.1554 11.9031 14.231 11.9786C14.3066 12.0543 14.4092 12.0968 14.5161 12.0968L15.7258 12.0968L15.7258 13.7097L12.9032 13.7097L12.9032 4.03223L15.7258 4.03223L15.7258 4.83875L14.5161 4.83875C14.4092 4.83875 14.3066 4.88123 14.231 4.95679C14.1554 5.03247 14.1129 5.13501 14.1129 5.24194C14.1129 5.34888 14.1554 5.45142 14.231 5.5271C14.3066 5.60266 14.4092 5.64514 14.5161 5.64514ZM19.3549 10.4839L19.3549 13.6593C19.355 13.6761 19.3562 13.693 19.3583 13.7097L17.7384 13.7097C17.7406 13.693 17.7418 13.6761 17.7419 13.6593L17.7419 10.4839L19.3549 10.4839ZM17.7419 9.67737L17.7419 9.36951L18.5484 7.75659L19.3549 9.36951L19.3549 9.67737L17.7419 9.67737ZM24.1935 13.7097L20.1578 13.7097C20.16 13.693 20.1611 13.6761 20.1613 13.6593L20.1613 9.27417C20.1613 9.21155 20.1467 9.1499 20.119 9.09375L18.9093 6.67444C18.8757 6.60742 18.8242 6.55115 18.7604 6.51184C18.6967 6.47241 18.6233 6.45154 18.5484 6.45154C18.4735 6.45154 18.4001 6.47241 18.3363 6.51184C18.2726 6.55115 18.2211 6.60742 18.1875 6.67444L16.9778 9.09375C16.95 9.1499 16.9355 9.21155 16.9355 9.27417L16.9355 13.6593C16.9357 13.6761 16.9368 13.693 16.939 13.7097L16.5323 13.7097L16.5323 3.62903C16.5323 3.52209 16.4897 3.41956 16.4142 3.34387C16.3386 3.26831 16.236 3.22583 16.129 3.22583L12.5 3.22583C12.3931 3.22583 12.2905 3.26831 12.2149 3.34387C12.1393 3.41956 12.0968 3.52209 12.0968 3.62903L12.0968 13.7097L11.69 13.7097C11.6922 13.693 11.6934 13.6761 11.6935 13.6593L11.6935 6.04834C11.6935 5.98584 11.679 5.92407 11.6512 5.86792L10.4415 3.44861C10.408 3.38159 10.3564 3.32532 10.2927 3.28601C10.2289 3.24658 10.1555 3.22583 10.0806 3.22583C10.0057 3.22583 9.93231 3.24658 9.86859 3.28601C9.80487 3.32532 9.7533 3.38159 9.71979 3.44861L8.51007 5.86792C8.4823 5.92407 8.4678 5.98584 8.46774 6.04834L8.46774 13.6593C8.4679 13.6761 8.46909 13.693 8.47128 13.7097L7.49344 13.7097L7.6608 9.69409C7.66129 9.68494 7.6608 9.6759 7.6608 9.66638L7.6608 9.65417C7.65985 9.64001 7.65817 9.62585 7.65573 9.61194L7.65573 9.61084L7.28278 7.37244C7.75101 7.01917 8.06451 6.37708 8.06451 5.64514C8.06451 4.60889 6.8634 3.46118 6.72632 3.33362C6.65161 3.2644 6.5535 3.22595 6.4516 3.22595C6.34973 3.22595 6.25162 3.2644 6.17691 3.33362C6.03983 3.46118 4.83871 4.60889 4.83871 5.64514C4.83871 6.37708 5.15222 7.01917 5.62045 7.37244L5.24747 9.61084L5.24747 9.61194C5.24506 9.62585 5.24338 9.64001 5.24243 9.65417L5.24243 9.66638C5.24243 9.6759 5.24194 9.68494 5.24243 9.69409L5.40979 13.7097L0.806458 13.7097L0.806458 1.61292C0.806732 1.39905 0.891785 1.19409 1.04297 1.04297C1.19415 0.891846 1.39911 0.806763 1.61292 0.806396L23.3871 0.806396C23.6009 0.806763 23.8058 0.891846 23.957 1.04297C24.1082 1.19409 24.1933 1.39905 24.1935 1.61292L24.1935 13.7097Z" fill="#000000" fill-opacity="1.000000" fill-rule="nonzero"/>
	<path id="Vector" d="M4.43549 14.9193L2.01614 14.9193C1.90921 14.9193 1.80664 14.9618 1.73102 15.0374C1.6554 15.113 1.61292 15.2156 1.61292 15.3225C1.61292 15.4294 1.6554 15.532 1.73102 15.6077C1.80664 15.6832 1.90921 15.7257 2.01614 15.7257L4.43549 15.7257C4.54245 15.7257 4.64499 15.6832 4.72061 15.6077C4.79623 15.532 4.83871 15.4294 4.83871 15.3225C4.83871 15.2156 4.79623 15.113 4.72061 15.0374C4.64499 14.9618 4.54245 14.9193 4.43549 14.9193Z" fill="#000000" fill-opacity="1.000000" fill-rule="nonzero"/>
	<path id="Vector" d="M6.0484 14.9193L5.64517 14.9193C5.53824 14.9193 5.43567 14.9618 5.36005 15.0374C5.28442 15.113 5.24194 15.2156 5.24194 15.3225C5.24194 15.4294 5.28442 15.532 5.36005 15.6077C5.43567 15.6832 5.53824 15.7257 5.64517 15.7257L6.0484 15.7257C6.15533 15.7257 6.2579 15.6832 6.33353 15.6077C6.40915 15.532 6.45163 15.4294 6.45163 15.3225C6.45163 15.2156 6.40915 15.113 6.33353 15.0374C6.2579 14.9618 6.15533 14.9193 6.0484 14.9193Z" fill="#000000" fill-opacity="1.000000" fill-rule="nonzero"/>
	<path id="Vector" d="M10.0806 7.66125C9.97369 7.66125 9.87115 7.70374 9.79553 7.7793C9.71991 7.85498 9.67743 7.95752 9.67743 8.06445L9.67743 12.5C9.67743 12.6069 9.71991 12.7095 9.79553 12.785C9.87115 12.8607 9.97369 12.9032 10.0806 12.9032C10.1876 12.9032 10.2902 12.8607 10.3658 12.785C10.4414 12.7095 10.4839 12.6069 10.4839 12.5L10.4839 8.06445C10.4839 7.95752 10.4414 7.85498 10.3658 7.7793C10.2902 7.70374 10.1876 7.66125 10.0806 7.66125Z" fill="#000000" fill-opacity="1.000000" fill-rule="nonzero"/>
	<path id="Vector" d="M18.5483 10.8871C18.4414 10.8871 18.3389 10.9296 18.2632 11.0051C18.1876 11.0808 18.1451 11.1833 18.1451 11.2903L18.1451 12.5C18.1451 12.6069 18.1876 12.7095 18.2632 12.7852C18.3389 12.8607 18.4414 12.9032 18.5483 12.9032C18.6553 12.9032 18.7579 12.8607 18.8335 12.7852C18.9091 12.7095 18.9516 12.6069 18.9516 12.5L18.9516 11.2903C18.9516 11.1833 18.9091 11.0808 18.8335 11.0051C18.7579 10.9296 18.6553 10.8871 18.5483 10.8871Z" fill="#000000" fill-opacity="1.000000" fill-rule="nonzero"/>
	<path id="Vector" d="M2.01614 2.41931L5.24194 2.41931C5.34888 2.41931 5.45145 2.37683 5.52707 2.30127C5.60269 2.22559 5.64517 2.12305 5.64517 2.01611C5.64517 1.90918 5.60269 1.80664 5.52707 1.73096C5.45145 1.6554 5.34888 1.61292 5.24194 1.61292L2.01614 1.61292C1.90921 1.61292 1.80664 1.6554 1.73102 1.73096C1.6554 1.80664 1.61292 1.90918 1.61292 2.01611C1.61292 2.12305 1.6554 2.22559 1.73102 2.30127C1.80664 2.37683 1.90921 2.41931 2.01614 2.41931Z" fill="#000000" fill-opacity="1.000000" fill-rule="nonzero"/>
	<path id="Vector" d="M2.01614 3.62891L2.8226 3.62891C2.92953 3.62891 3.0321 3.58643 3.10773 3.51086C3.18335 3.43518 3.22583 3.33264 3.22583 3.22571C3.22583 3.11877 3.18335 3.01624 3.10773 2.94055C3.0321 2.86499 2.92953 2.82251 2.8226 2.82251L2.01614 2.82251C1.90921 2.82251 1.80664 2.86499 1.73102 2.94055C1.6554 3.01624 1.61292 3.11877 1.61292 3.22571C1.61292 3.33264 1.6554 3.43518 1.73102 3.51086C1.80664 3.58643 1.90921 3.62891 2.01614 3.62891Z" fill="#000000" fill-opacity="1.000000" fill-rule="nonzero"/>
	<path id="Vector" d="M21.371 12.9032L22.9839 12.9032C23.0908 12.9032 23.1934 12.8607 23.269 12.7852C23.3447 12.7095 23.3871 12.6069 23.3871 12.5C23.3871 12.3931 23.3447 12.2905 23.269 12.2148C23.1934 12.1393 23.0908 12.0968 22.9839 12.0968L21.371 12.0968C21.264 12.0968 21.1615 12.1393 21.0859 12.2148C21.0103 12.2905 20.9678 12.3931 20.9678 12.5C20.9678 12.6069 21.0103 12.7095 21.0859 12.7852C21.1615 12.8607 21.264 12.9032 21.371 12.9032Z" fill="#000000" fill-opacity="1.000000" fill-rule="nonzero"/>
	<path id="Vector" d="M22.5806 11.6935L22.9839 11.6935C23.0908 11.6935 23.1934 11.651 23.269 11.5754C23.3446 11.4998 23.3871 11.3972 23.3871 11.2903C23.3871 11.1833 23.3446 11.0808 23.269 11.0051C23.1934 10.9296 23.0908 10.8871 22.9839 10.8871L22.5806 10.8871C22.4737 10.8871 22.3712 10.9296 22.2955 11.0051C22.2199 11.0808 22.1774 11.1833 22.1774 11.2903C22.1774 11.3972 22.2199 11.4998 22.2955 11.5754C22.3712 11.651 22.4737 11.6935 22.5806 11.6935Z" fill="#000000" fill-opacity="1.000000" fill-rule="nonzero"/>
</svg>
