<svg width="20.000000" height="20.000000" viewBox="0 0 20 20" fill="none" xmlns="http://www.w3.org/2000/svg" xmlns:xlink="http://www.w3.org/1999/xlink">
	<desc>
			Created with Pixso.
	</desc>
	<defs/>
	<path id="Facebook" d="M0 2.92969L0 17.0703C0 18.6856 1.31439 20 2.92969 20L17.0703 20C18.6856 20 20 18.6856 20 17.0703L20 11.1719L12.9297 11.1719L12.9297 13.5156L9.41406 13.5156L9.41406 11.1719L7.03125 11.1719C5.09262 11.1719 3.51562 9.59488 3.51562 7.65625L3.51562 4.10156L7.03125 4.10156L7.03125 7.65625L9.41406 7.65625L9.41406 4.10156L12.9297 4.6875L12.9297 7.65625L20 7.65625L20 2.92969C20 1.31439 18.6856 0 17.0703 0L2.92969 0C1.31439 0 0 1.31439 0 2.92969Z" fill="#000000" fill-opacity="1.000000" fill-rule="nonzero"/>
</svg>
