<svg width="19.000000" height="20.000000" viewBox="0 0 19 20" fill="none" xmlns="http://www.w3.org/2000/svg" xmlns:xlink="http://www.w3.org/1999/xlink">
	<desc>
			Created with Pixso.
	</desc>
	<defs/>
	<path id="Github" d="M0 10C0 15.525 4.36166 20 9.74106 20C14.0457 20 17.6962 17.135 18.9832 13.1625C19.0749 12.6625 18.7734 12.4792 18.5148 12.4792C18.2835 12.4792 17.6706 12.4875 16.8585 12.4917C17.4459 15.2733 15.5517 15.86 15.5517 15.86C14.4274 16.315 14.1267 16.9725 14.1267 16.9725C13.5228 17.8783 13.5352 16.9025 13.5352 16.9025C13.603 15.8983 14.5389 15.3708 14.5389 15.3708C16.0283 14.4792 15.5979 13.03 15.3493 12.4583C14.719 12.3683 14.2903 12.1108 14.0466 11.825C13.8029 14.0458 12.9652 16.38 9.23303 16.38C8.16989 16.38 7.30084 15.9925 6.61932 15.3508C6.37317 15.4633 5.38269 15.8008 4.04117 15.2633C4.04117 15.2633 3.78012 14.4258 5.03989 12.5133C4.82346 11.7133 4.71606 10.8633 4.71109 10.0133C4.71606 9.16333 4.82346 8.31333 5.03989 7.51333C3.78012 5.61333 4.04117 4.77583 4.04117 4.77583C5.38269 4.23833 6.37317 4.57583 6.61932 4.67583C7.30084 4.03833 8.16989 3.65084 9.23303 3.65084C12.9752 3.65084 13.7987 5.98833 14.0383 8.21333C14.3307 7.86333 14.928 7.53833 15.8408 7.53833C17.1443 7.53833 18.1918 7.55083 18.5082 7.55083C18.7635 7.55083 19.0683 7.37583 18.9708 6.86333C17.692 2.8625 14.0391 0 9.74106 0C4.36166 0 0 4.4775 0 10Z" fill="#212121" fill-opacity="1.000000" fill-rule="nonzero"/>
</svg>
