<svg width="20.000000" height="20.000000" viewBox="0 0 20 20" fill="none" xmlns="http://www.w3.org/2000/svg" xmlns:xlink="http://www.w3.org/1999/xlink">
	<desc>
			Created with Pixso.
	</desc>
	<defs/>
	<path id="Vector" d="M0 6.25L0 13.75C0 17.2013 2.79874 20 6.25 20L13.75 20C17.2013 20 20 17.2012 20 13.75L20 6.25C20 2.79875 17.2013 0 13.75 0L6.25 0C2.79874 0 0 2.79875 0 6.25ZM13.75 1.875C16.1625 1.875 18.125 3.8375 18.125 6.25L18.125 13.75C18.125 16.1625 16.1625 18.125 13.75 18.125L6.25 18.125C3.83749 18.125 1.875 16.1625 1.875 13.75L1.875 6.25C1.875 3.8375 3.83749 1.875 6.25 1.875L13.75 1.875Z" fill="#000000" fill-opacity="1.000000" fill-rule="nonzero"/>
	<path id="Vector" d="M5 10C5 12.7612 7.23874 15 10 15C12.7613 15 15 12.7612 15 10C15 7.23875 12.7613 5 10 5C7.23874 5 5 7.23875 5 10ZM13.125 10C13.125 11.7225 11.7225 13.125 10 13.125C8.27625 13.125 6.875 11.7225 6.875 10C6.875 8.2775 8.27625 6.875 10 6.875C11.7225 6.875 13.125 8.2775 13.125 10Z" fill="#000000" fill-opacity="1.000000" fill-rule="nonzero"/>
	<path id="Vector" d="M4.625 3.95876C4.99295 3.95876 5.29123 4.25705 5.29123 4.62501C5.29123 4.99297 4.99295 5.29126 4.625 5.29126C4.25702 5.29126 3.95874 4.99297 3.95874 4.62501C3.95874 4.25705 4.25702 3.95876 4.625 3.95876Z" fill="#000000" fill-opacity="1.000000" fill-rule="evenodd"/>
</svg>
